<?xml version="1.0" encoding="UTF-8" standalone="no"?>
<svg width="123px" height="18px" viewBox="0 0 123 18" version="1.1" xmlns="http://www.w3.org/2000/svg" xmlns:xlink="http://www.w3.org/1999/xlink">
    <!-- Generator: Sketch 39.1 (31720) - http://www.bohemiancoding.com/sketch -->
    <title>Shape</title>
    <desc>Created with Sketch.</desc>
    <defs></defs>
    <g id="Responsive-side-nav" stroke="none" stroke-width="1" fill="none" fill-rule="evenodd">
        <g id="1.4-1280---spacing" transform="translate(-77.000000, -18.000000)" fill="#326de6">
            <g id="App-Bar">
                <g id="kubernetes-logo-white" transform="translate(24.000000, 6.000000)">
                    <g id="Group">
                        <path d="M170.685333,27.015 C170.006833,27.015 169.3185,26.92725 168.64,26.703 C167.9615,26.51775 167.332167,26.2935 166.742167,26.06925 L166.240667,28.62375 C166.693,28.809 167.243667,29.03325 167.9615,29.2575 C168.689167,29.48175 169.544667,29.6085 170.587,29.6085 C171.59,29.6085 172.4455,29.52075 173.124,29.34525 C173.8025,29.16975 174.3925,28.89675 174.8055,28.58475 C175.208667,28.27275 175.523333,27.912 175.710167,27.4635 C175.887167,27.015 175.975667,26.5665 175.975667,26.06925 C175.975667,25.44525 175.847833,24.948 175.611833,24.4995 C175.346333,24.09975 175.031667,23.739 174.667833,23.47575 C174.254833,23.20275 173.851667,22.9785 173.350167,22.803 C172.8585,22.61775 172.406167,22.44225 171.953833,22.30575 C171.629333,22.218 171.314667,22.0815 171.039333,21.99375 C170.773833,21.906 170.4985,21.7695 170.3215,21.633 C170.095333,21.4965 169.957667,21.40875 169.82,21.23325 C169.682333,21.09675 169.643,20.92125 169.643,20.736 C169.643,20.51175 169.770833,20.33625 170.046167,20.112 C170.3215,19.9365 170.862333,19.839 171.629333,19.839 C172.406167,19.839 173.084667,19.9365 173.664833,20.112 C174.254833,20.2875 174.707167,20.424 175.031667,20.51175 L175.523333,17.91825 C175.031667,17.694 174.481,17.50875 173.8025,17.421 C173.124,17.2845 172.406167,17.2455 171.629333,17.2455 C170.724667,17.2455 169.957667,17.33325 169.3185,17.50875 C168.689167,17.694 168.148333,17.95725 167.735333,18.318 C167.332167,18.67875 167.0175,19.0395 166.830667,19.488 C166.653667,19.9365 166.565167,20.385 166.565167,20.8725 C166.565167,21.4965 166.693,21.99375 166.919167,22.3935 C167.1945,22.803 167.509167,23.16375 167.873,23.427 C168.286,23.7 168.689167,23.92425 169.1415,24.09975 C169.593833,24.27525 170.095333,24.41175 170.547667,24.54825 C170.862333,24.636 171.177,24.72375 171.452333,24.86025 C171.717833,24.948 171.993167,25.0845 172.219333,25.17225 C172.4455,25.26975 172.632333,25.3965 172.760167,25.58175 C172.897833,25.71825 172.947,25.89375 172.947,26.118 C172.947,26.43 172.760167,26.65425 172.357,26.79075 C171.993167,26.96625 171.403167,27.015 170.685333,27.015 L170.685333,27.015 Z M161.038833,22.3545 L156.2795,22.3545 C156.328667,22.0425 156.377833,21.7305 156.505667,21.40875 C156.604,21.09675 156.781,20.8335 156.958,20.60925 C157.144833,20.385 157.410333,20.19975 157.685667,20.06325 C157.961,19.9365 158.324833,19.88775 158.728,19.88775 C159.131167,19.88775 159.495,19.9755 159.770333,20.112 C160.045667,20.2485 160.311167,20.424 160.498,20.697 C160.675,20.92125 160.812667,21.1845 160.901167,21.4965 C160.989667,21.7305 161.038833,22.0425 161.038833,22.3545 L161.038833,22.3545 Z M153.064,23.5635 C153.064,24.54825 153.201667,25.44525 153.516333,26.16675 C153.840833,26.92725 154.244,27.55125 154.834,28.0485 C155.374833,28.536 156.053333,28.9455 156.8695,29.20875 C157.685667,29.48175 158.590333,29.6085 159.5835,29.6085 C160.360333,29.6085 161.038833,29.5695 161.628833,29.433 C162.218833,29.2965 162.799,29.16975 163.349667,28.9845 L162.936667,26.391 C162.5335,26.51775 162.081167,26.65425 161.5305,26.79075 C160.989667,26.92725 160.360333,26.96625 159.770333,26.96625 C158.777167,26.96625 157.961,26.742 157.2825,26.2935 C156.643333,25.845 156.328667,25.26975 156.328667,24.4995 L164.028167,24.4995 C164.028167,24.37275 164.0675,24.1875 164.0675,23.96325 L164.0675,23.33925 C164.0675,21.36975 163.615167,19.88775 162.7105,18.85425 C161.805833,17.8305 160.498,17.33325 158.728,17.33325 C158.000333,17.33325 157.321833,17.46975 156.643333,17.733 C155.964833,18.006 155.374833,18.40575 154.834,18.903 C154.293167,19.43925 153.880167,20.06325 153.5655,20.8725 C153.250833,21.633 153.064,22.53 153.064,23.5635 L153.064,23.5635 Z M143.289667,20.16075 L143.289667,24.99675 C143.289667,25.9815 143.378167,26.79075 143.604333,27.37575 C143.791167,27.99975 144.105833,28.44825 144.509,28.76025 C144.922,29.07225 145.374333,29.2965 145.915167,29.433 C146.456,29.5695 147.095167,29.6085 147.813,29.6085 C148.452167,29.6085 149.0815,29.5695 149.76,29.48175 C150.4385,29.38425 151.0285,29.20875 151.6185,28.9845 L151.215333,26.34225 C150.94,26.47875 150.664667,26.5665 150.399167,26.65425 C150.173,26.742 149.897667,26.79075 149.6715,26.82975 C149.445333,26.8785 149.219167,26.92725 148.943833,26.92725 C148.717667,26.92725 148.452167,26.96625 148.1375,26.96625 C147.862167,26.96625 147.636,26.92725 147.409833,26.8785 C147.183667,26.82975 146.996833,26.742 146.869,26.5665 C146.731333,26.43 146.593667,26.20575 146.505167,25.9425 C146.416667,25.6695 146.3675,25.30875 146.3675,24.909 L146.3675,20.16075 L151.343167,20.16075 L151.343167,17.60625 L146.3675,17.60625 L146.3675,14.15475 L143.2405,14.64225 L143.2405,17.60625 L140.5265,17.60625 L140.5265,20.16075 L143.289667,20.16075 L143.289667,20.16075 Z M131.066833,22.3545 C131.106167,22.0425 131.155333,21.7305 131.293,21.40875 C131.3815,21.09675 131.5585,20.8335 131.745333,20.60925 C131.922333,20.385 132.197667,20.19975 132.463167,20.06325 C132.787667,19.9365 133.102333,19.88775 133.5055,19.88775 C133.9185,19.88775 134.282333,19.9755 134.547833,20.112 C134.823167,20.2485 135.088667,20.424 135.2755,20.697 C135.4525,20.92125 135.590167,21.1845 135.678667,21.4965 C135.777,21.7695 135.816333,22.0815 135.816333,22.3935 L131.066833,22.3935 L131.066833,22.3545 L131.066833,22.3545 Z M127.851333,23.5635 C127.851333,24.54825 127.989,25.44525 128.303667,26.16675 C128.618333,26.92725 129.0215,27.55125 129.6115,28.0485 C130.162167,28.536 130.840667,28.9455 131.647,29.20875 C132.463167,29.48175 133.367833,29.6085 134.370833,29.6085 C135.137833,29.6085 135.816333,29.5695 136.406333,29.433 C136.996333,29.2965 137.586333,29.16975 138.127167,28.9845 L137.724,26.391 C137.311,26.51775 136.858667,26.65425 136.317833,26.79075 C135.777,26.92725 135.137833,26.96625 134.547833,26.96625 C133.554667,26.96625 132.7385,26.742 132.06,26.2935 C131.420833,25.845 131.106167,25.26975 131.106167,24.4995 L138.805667,24.4995 C138.805667,24.37275 138.854833,24.1875 138.854833,23.96325 L138.854833,23.33925 C138.854833,21.36975 138.4025,19.88775 137.488,18.85425 C136.583333,17.8305 135.2755,17.33325 133.5055,17.33325 C132.787667,17.33325 132.109167,17.46975 131.420833,17.733 C130.742333,18.006 130.162167,18.40575 129.6115,18.903 C129.070667,19.43925 128.6675,20.06325 128.343,20.8725 C128.028333,21.633 127.851333,22.53 127.851333,23.5635 L127.851333,23.5635 Z M116.080833,29.34525 L119.198,29.34525 L119.198,20.112 C119.473333,20.06325 119.6995,20.06325 119.925667,20.02425 C120.151833,20.02425 120.378,19.9755 120.604167,19.9755 C121.371167,19.9755 121.872667,20.19975 122.148,20.697 C122.4135,21.1845 122.502,21.945 122.502,23.06625 L122.502,29.2965 L125.629,29.2965 L125.629,22.6665 C125.629,21.85725 125.5405,21.1455 125.402833,20.47275 C125.265167,19.8 124.999667,19.26375 124.635833,18.7665 C124.272,18.279 123.7705,17.91825 123.141167,17.64525 C122.502,17.382 121.735,17.2455 120.781167,17.2455 C119.837167,17.2455 118.9325,17.2845 118.116333,17.421 C117.300167,17.5575 116.621667,17.694 116.080833,17.8305 L116.080833,29.34525 L116.080833,29.34525 Z M112.865333,20.736 L113.406167,17.8695 C113.130833,17.78175 112.816167,17.694 112.452333,17.64525 C112.0885,17.60625 111.7345,17.5575 111.370667,17.50875 C111.006833,17.46975 110.692167,17.421 110.367667,17.421 C110.053,17.421 109.826833,17.382 109.649833,17.382 C108.469833,17.382 107.476667,17.46975 106.611333,17.64525 C105.755833,17.8305 104.8905,18.05475 104.074333,18.36675 L104.074333,29.34525 L107.201333,29.34525 L107.201333,20.64825 C107.653667,20.51175 108.066667,20.47275 108.469833,20.424 C108.873,20.385 109.325333,20.385 109.738333,20.385 C109.915333,20.385 110.1415,20.385 110.416833,20.424 C110.692167,20.424 110.957667,20.47275 111.233,20.51175 C111.4985,20.5605 111.823,20.60925 112.0885,20.64825 C112.452333,20.64825 112.6785,20.697 112.865333,20.736 L112.865333,20.736 Z M97.9678333,22.3545 L93.2085,22.3545 C93.2576667,22.0425 93.297,21.7305 93.4346667,21.40875 C93.533,21.09675 93.71,20.8335 93.887,20.60925 C94.0738333,20.385 94.3393333,20.19975 94.6146667,20.06325 C94.89,19.9365 95.244,19.88775 95.657,19.88775 C96.0601667,19.88775 96.424,19.9755 96.6993333,20.112 C96.9648333,20.2485 97.2401667,20.424 97.4171667,20.697 C97.604,20.92125 97.7416667,21.1845 97.8301667,21.4965 C97.9186667,21.7305 97.9678333,22.0425 97.9678333,22.3545 L97.9678333,22.3545 Z M90.0421667,23.5635 C90.0421667,24.54825 90.1798333,25.44525 90.4945,26.16675 C90.8091667,26.92725 91.2221667,27.55125 91.8121667,28.0485 C92.353,28.536 93.0315,28.9455 93.8476667,29.20875 C94.6638333,29.48175 95.5685,29.6085 96.5616667,29.6085 C97.3286667,29.6085 98.0071667,29.5695 98.5971667,29.433 C99.1871667,29.2965 99.7771667,29.16975 100.318,28.9845 L99.9148333,26.391 C99.5018333,26.51775 99.0495,26.65425 98.5086667,26.79075 C97.9678333,26.92725 97.3286667,26.96625 96.7386667,26.96625 C95.7455,26.96625 94.9293333,26.742 94.2508333,26.2935 C93.6215,25.845 93.297,25.26975 93.297,24.4995 L100.9965,24.4995 C100.9965,24.37275 101.045667,24.1875 101.045667,23.96325 L101.045667,23.33925 C101.045667,21.36975 100.593333,19.88775 99.6886667,18.85425 C98.784,17.8305 97.4663333,17.33325 95.7061667,17.33325 C94.9785,17.33325 94.3,17.46975 93.6215,17.733 C92.943,18.006 92.353,18.40575 91.8121667,18.903 C91.2615,19.43925 90.8583333,20.06325 90.5436667,20.8725 C90.1798333,21.633 90.0421667,22.53 90.0421667,23.5635 L90.0421667,23.5635 Z M88.4983333,23.47575 C88.4983333,22.57875 88.4098333,21.7305 88.1836667,20.96025 C88.0066667,20.19975 87.692,19.57575 87.279,19.0395 C86.8758333,18.50325 86.3743333,18.09375 85.7843333,17.78175 C85.1943333,17.50875 84.5158333,17.33325 83.7488333,17.33325 C83.3358333,17.33325 82.9326667,17.382 82.5295,17.46975 C82.1165,17.5575 81.7133333,17.694 81.261,17.8695 L81.261,12 L78.134,12.53625 L78.134,28.9845 C78.724,29.16 79.4025,29.2965 80.258,29.433 C81.1233333,29.5695 81.9395,29.6085 82.7556667,29.6085 C83.6603333,29.6085 84.4765,29.48175 85.155,29.16 C85.8728333,28.89675 86.4628333,28.44825 86.9643333,27.912 C87.4658333,27.37575 87.8198333,26.742 88.0951667,25.9815 C88.3705,25.26975 88.4983333,24.41175 88.4983333,23.47575 L88.4983333,23.47575 Z M85.332,23.388 C85.332,24.68475 85.1058333,25.58175 84.6043333,26.16675 C84.1126667,26.742 83.4735,26.96625 82.7065,26.96625 C82.5295,26.96625 82.3033333,26.96625 82.028,26.92725 C81.7526667,26.92725 81.5265,26.8785 81.3003333,26.82975 L81.3003333,20.47275 C81.5265,20.33625 81.8018333,20.2485 82.1656667,20.112 C82.4803333,20.02425 82.8441667,19.9755 83.1588333,19.9755 C83.8865,19.9755 84.4765,20.2875 84.7911667,20.8725 C85.155,21.4575 85.332,22.30575 85.332,23.388 L85.332,23.388 Z M75.0561667,28.9455 L75.0561667,17.60625 L71.9291667,17.60625 L71.9291667,26.82975 C71.4768333,26.92725 70.9753333,26.96625 70.523,26.96625 C69.756,26.96625 69.2545,26.703 68.989,26.16675 C68.7136667,25.62075 68.576,24.82125 68.576,23.739 L68.576,17.60625 L65.4588333,17.60625 L65.4588333,24.1485 C65.4588333,24.948 65.4981667,25.6695 65.6358333,26.34225 C65.7735,27.015 65.9996667,27.6 66.3635,28.0875 C66.7273333,28.58475 67.219,28.9455 67.8581667,29.20875 C68.4875,29.48175 69.2545,29.6085 70.2575,29.6085 C71.2113333,29.6085 72.116,29.52075 72.9223333,29.38425 C73.7876667,29.2575 74.5153333,29.07225 75.0561667,28.9455 L75.0561667,28.9455 Z M56.127,22.26675 C56.4416667,21.906 56.717,21.54525 57.0316667,21.1455 C57.3561667,20.736 57.6708333,20.33625 57.9363333,19.9365 C58.2116667,19.527 58.5263333,19.12725 58.8016667,18.7275 C59.0671667,18.318 59.3031667,17.95725 59.5293333,17.60625 L63.2365,17.60625 C62.9218333,18.006 62.6071667,18.40575 62.1941667,18.85425 C61.791,19.30275 61.4271667,19.75125 61.0141667,20.2485 C60.611,20.697 60.2078333,21.1455 59.7948333,21.594 C59.3916667,22.0425 59.0278333,22.44225 58.664,22.803 C59.0671667,23.20275 59.5293333,23.7 60.021,24.23625 C60.5225,24.7725 60.9748333,25.3575 61.4763333,25.9815 C61.9286667,26.5665 62.381,27.1905 62.7841667,27.7755 C63.1971667,28.3605 63.5118333,28.89675 63.738,29.38425 L60.1586667,29.38425 C59.9816667,28.9845 59.7063333,28.497 59.3425,27.99975 C59.0278333,27.4635 58.664,26.96625 58.3001667,26.43 C57.9363333,25.9425 57.5823333,25.44525 57.1693333,24.99675 C56.8055,24.54825 56.4416667,24.1485 56.127,23.8755 L56.127,29.433 L53,29.433 L53,12.624 L56.127,12.08775 L56.127,22.26675 L56.127,22.26675 Z" id="Shape"></path>
                    </g>
                </g>
            </g>
        </g>
    </g>
</svg>
